# xmcd
#
# Track frame offsets:
#	150
#	16952
#	28652
#	46325
#	61114
#	74865
#	92047
#	106875
#	125760
#	141490
#
# Disc length: 2125 seconds
#
# Revision: 1
# Processed by: cddbd v1.5.2PL0 Copyright (c) Steve Scherf et al.
# Submitted via: audiograbber 1.83.01
#
DISCID=91084b0a
DTITLE=El Caminos - ...away
DYEAR=1995
DGENRE=
TTITLE0=Ba ba da da
TTITLE1=Isle of Capri
TTITLE2=Fruit de Passion
TTITLE3=Camino Man
TTITLE4=Joyita
TTITLE5=Moo Bien
TTITLE6=Searchlight
TTITLE7=Smooth George
TTITLE8=Tsunami
TTITLE9=Ancient Swell
EXTD=
EXTT0=
EXTT1=
EXTT2=
EXTT3=
EXTT4=
EXTT5=
EXTT6=
EXTT7=
EXTT8=
EXTT9=
PLAYORDER=
